<svg xmlns="http://www.w3.org/2000/svg" version="1.1" xmlns:xlink="http://www.w3.org/1999/xlink" xmlns:svgjs="http://svgjs.dev/svgjs" width="2000" height="2250" viewBox="0 0 2000 2250"><g transform="matrix(1,0,0,1,0.00014687500004129106,0)"><svg viewBox="0 0 320 360" data-background-color="#ffffff" preserveAspectRatio="xMidYMid meet" height="2250" width="2000" xmlns="http://www.w3.org/2000/svg" xmlns:xlink="http://www.w3.org/1999/xlink"><g id="tight-bounds" transform="matrix(1,0,0,1,0.000023499999997511622,0)"><svg viewBox="0 0 320 360" height="360" width="320"><g><svg></svg></g><g><svg viewBox="0 0 320 360" height="360" width="320"><g><path transform="translate(-74.99272,-51.79039) scale(4.65793,4.65793)" d="M20.6 59.9l0.8 1-0.4-1.3c-0.1-0.6-0.8 0.1-0.4 0.3M21.5 59.3c0.3 0.5 0.6 1 0.6 1.5 0 0.7 0.6 1 1.1 1.2-0.7-0.8-1.1-3-1.7-2.7M59.9 16.9c1.7 0 3.3-0.2 5.1 0.2 4.4 1.1 8.1 3.3 10.6 6.4l7 11.2c0.3 2.8 0.9 5.9 0.8 9.3 0.7 0 0.6-1 1.4-1.2-0.8 2-1.2 4.5-1.4 7.4-0.5-1.6 0-4 0.1-5.3-0.7 1.1-1.1 0.3-1.1-0.2 0.1-0.8-0.3-0.7-0.6-1-1.1-1-1.8-2.1-2.6-3.8 0.5-1.3 0.6-3.2-1-4.2-0.5-0.3-1.1-0.8-1.4-1.6-0.4-1.1-1.1-2.4-0.9-4.1 0.1-0.5-1.5 1.1-2.4 0.4-3.9-2.7-7.8-5.8-12.5-8.4-2.5 0-4.3-0.9-5.2-2-0.8-1-0.2-2.3 1-2.4 0.7 0 1.5-0.2 2.1 0.2 0.1-0.4 0.5-0.9 1-0.9M50 14.6l0.2 0.1c1 0.2 1.5 1.6 2.6 1.1 0 0.7 0.1 1.4-0.1 1.9-0.3 0.8-1.2 0.8-1.9 0.8-6.7-0.4-10.6 2.4-14.7 4.8-1.1 0.7-2.3 1.2-3.2 2.1-4.3 4-9 7.7-10.1 15.1l-0.9 8.2c-0.1 0.9-1.1 1.8-0.9 2.9l0.7 4.9c-0.7-0.7-1.1 0.2-0.9 0.6 0.1 0.3 0.5 1.3 1.1 0.4 0.8 1.5 1.6 4.4 2.7 5.7 3.4 4 7.8 7.6 11.4 11.2 0.9-0.2 1.6-0.2 1.8-0.8 0.3 0.6-0.3 1.2-0.8 1.3 1.6 1 3.4 1.9 5.8 2.1 3.1 0.2 6 0.7 8.7 1.4 1.4-0.4 2.8-0.6 4.3-0.7 0.5 0 0.8-0.8 1.4-1l0.1-1c0.6 0.9 0.5-0.3 0.1-0.9 0.7 0.6 0.9 1.1 1.2 1.5 0-0.3 0.8-1.4 0.8-0.1l0.2-1.3c0.3-0.2 0.4 1.1 0.7 0.2 0.3-0.9 0.9-0.2 1.5-0.5-0.2 0.4-0.1 1.2 0.6 0.7l0.8-0.7c0.5 1.2 1.3 0.7 1.7 0.5 4.4-2.8 8.8-6.1 13-9.4l-0.1 1.3 0.5-1.6c0.5 0.5 0.9 0.1 1.1-0.2 0.6-1 1.4-2 2.7-2.9-1.6 4.3-3.5 7.7-5.9 10.5l-1 1.2c0 0.7-0.2 1.6-1 1.7-0.4 0.1-1.2-0.2-1.8 0.4-0.3 0.4 0.7 1.2-0.1 0.6-0.7-0.5-1.4 0-2.2 0.2-0.6 0.2 0.4 0.8 0.6 1.2 0.2 0.4 0.4 0.8 0.3 1.3l-1.1-1.2c-1.3 0.7-2.1 2-3.2 3-0.5 0.4-0.3 1.1-0.3 1.7-0.7 0-1.5-0.2-1.9 0.2-0.3 0.4-0.2 1-0.2 1.6-1-0.1-1.1-1.6-2-1.3-0.9 0.2-1.9 0.3-2.7 0.8 0.6 1.2-1 0.5-0.8 0.7-1.5-0.9-2.8-1.6-4.4-1-3.4-1.1-7.6-0.6-10.7-0.2 0-0.5 0.1-1-0.1-1.1-0.2 0.5-0.8 0.3-0.7 0.3-1.9-1.3-3.8-2.1-5.8-3.2-1.8 0.2-3.5-0.7-4-1.2-1.4-1.3-3-0.6-4.3-0.9-2.8-0.7-3.8-3.6-4.1-5.6-0.2-1-1-1.4-1.3-1.3-1.3-4.2-3.3-8-4.9-11.9-0.4-1-0.3-2-0.3-3.1 0.5 0.2 1 0.1 0.9-0.6-0.5-3.3-1.7-5.8-3-8.2 0.7-3.4 0.8-7.4 2.4-10.4 1.4-2.7 4-4.1 5.8-6.4 0.6-0.8 0.6-1.9 1.2-2.6 2-2 4-4.1 6.2-5.9 1-0.8 2.2 0 3.7-0.3 0.5-1.8 2.5-3.4 4.4-2.9 0.8 0.2 2.4-1.9 2.9-2.1 0.8-0.3 0.4 0.8 0.4 1.5 1.9-1.5 4.5-2.3 6.9-3.2" fill="#8bc53f" fill-rule="nonzero" stroke="none" stroke-width="1" stroke-linecap="butt" stroke-linejoin="miter" stroke-miterlimit="10" stroke-dasharray="" stroke-dashoffset="0" font-family="none" font-weight="none" font-size="none" text-anchor="none" style="mix-blend-mode: normal" data-fill-palette-color="tertiary"></path></g><g transform="matrix(1,0,0,1,77.70863531123814,90)"><svg viewBox="0 0 164.58272937752372 180" height="180" width="164.58272937752372"><g><svg viewBox="0 0 164.58272937752372 180" height="180" width="164.58272937752372"><g><svg viewBox="0 0 191.99999999999997 209.9855806907021" height="180" width="164.58272937752372"><g transform="matrix(1,0,0,1,0,126.91916702846302)"><svg viewBox="0 0 191.99999999999997 83.06641366223909" height="83.06641366223909" width="191.99999999999997"><g id="textblocktransform"><svg viewBox="0 0 191.99999999999997 83.06641366223909" height="83.06641366223909" width="191.99999999999997" id="textblock"><g><svg viewBox="0 0 191.99999999999997 83.06641366223909" height="83.06641366223909" width="191.99999999999997"><g transform="matrix(1,0,0,1,0,0)"><svg width="191.99999999999997" viewBox="0.55 -29.45 79.05 34.2" height="83.06641366223909" data-palette-color="#8bc53f"><path d="M34.85 1.25L34.85 1.25Q33.3 1.25 32.6-0.13 31.9-1.5 31.9-3.63 31.9-5.75 32.8-9.45L32.8-9.45Q31.05-9.6 26.85-10.15L26.85-10.15Q19.9-1.55 15.3 1.8L15.3 1.8Q11.35 4.75 7.1 4.75L7.1 4.75Q4.4 4.75 2.48 3.4 0.55 2.05 0.55-0.6L0.55-0.6Q0.55-1.1 0.8-1.53 1.05-1.95 1.3-1.75 1.55-1.55 1.55-0.6L1.55-0.6Q1.55 1.1 2.88 1.95 4.2 2.8 6.1 2.8L6.1 2.8Q10.2 2.8 14.18 0.13 18.15-2.55 25-10.35L25-10.35Q17.65-11.25 15.3-11.25L15.3-11.25Q8.95-11.25 7.45-7.1L7.45-7.1Q7.25-6.55 7.25-6.08 7.25-5.6 7.45-5.23 7.65-4.85 7.53-4.63 7.4-4.4 7.1-4.42 6.8-4.45 6.6-4.75L6.6-4.75Q6.05-5.7 6.05-6.6L6.05-6.6Q6.05-9.7 7.18-11.18 8.3-12.65 9.8-13.05L9.8-13.05Q11.6-13.55 14-13.55 16.4-13.55 26.1-11.65L26.1-11.65Q28.8-14.75 34.3-21.63 39.8-28.5 39.8-28.6L39.8-28.6 39.85-28.6Q39.9-28.65 40.1-28.75L40.1-28.75Q41.3-29.45 42.7-29.45L42.7-29.45Q43.2-29.45 43.2-28.95L43.2-28.95Q43.2-28.9 43.15-28.83 43.1-28.75 43.05-28.63 43-28.5 42.95-28.4L42.95-28.4Q38.15-20.45 35.5-10.5L35.5-10.5 35.35-10.15 36.6-10.1Q37-10.05 38.02-10.05 39.05-10.05 40.2-10.53 41.35-11 41.68-11.55 42-12.1 42.25-11.8 42.5-11.5 42.3-11.15L42.3-11.15Q41.75-10.15 40.35-9.7L40.35-9.7Q39.15-9.2 37.98-9.2 36.8-9.2 36.45-9.2L36.45-9.2 35.1-9.25Q34.15-4.9 34.15-2.33 34.15 0.25 35.55 0.25L35.55 0.25Q36.9 0.25 39.75-1.9 42.6-4.05 45.1-7.45L45.1-7.45Q45.25-7.65 45.5-7.55 45.75-7.45 45.75-7.3 45.75-7.15 45.68-6.93 45.6-6.7 44.9-5.8L44.9-5.8Q42.8-3 39.75-0.5L39.75-0.5Q37.55 1.25 34.85 1.25ZM37.6-23.9L37.6-23.9Q37.65-24 37.73-24.18 37.8-24.35 37.85-24.45L37.85-24.45Q31.6-15.9 27.8-11.25L27.8-11.25 33.05-10.4Q34.45-15.85 37.6-23.9ZM56-2.9L56-2.9Q56.15-2.9 56.15-2.6 56.15-2.3 55.45-1.6L55.45-1.6 54.95-0.85Q53.6 1.2 52.97 1.55 52.35 1.9 51.97 1.9 51.6 1.9 50.82 1.73 50.05 1.55 50.02 1.35 50 1.15 50 0.95L50 0.95Q50-1.5 54.45-10.1L54.45-10.1Q53.25-9.95 52.62-9.95 52-9.95 51.57-10.33 51.15-10.7 51.15-11.3 51.15-11.9 52.2-12.4 53.25-12.9 53.82-12.9 54.4-12.9 54.8-12.43 55.2-11.95 55.3-11.95L55.3-11.95 55.45-11.95Q56.5-13.85 57.35-15.45 58.2-17.05 58.2-17.53 58.2-18 58.05-18.25L58.05-18.25Q58.35-19.7 60.52-21.95 62.7-24.2 64.5-24.2L64.5-24.2Q65.3-24.2 66.45-23.58 67.6-22.95 67.45-21.95L67.45-21.95Q67.1-22.2 66.8-22.2L66.8-22.2Q63.4-22.2 57.45-12L57.45-12Q59.1-12.15 60.9-12.45L60.9-12.45Q66.9-13.2 67.7-13.2 68.5-13.2 68.72-13.18 68.95-13.15 69.12-13.05 69.3-12.95 69.35-12.85L69.35-12.85Q69.4-12.55 68.2-12.15L68.2-12.15Q65.3-11.2 56.45-10.25L56.45-10.25Q52.25-2.65 52.25-0.9L52.25-0.9Q52.25-0.05 52.97-0.28 53.7-0.5 54.25-1.2L54.25-1.2Q55.55-2.9 56-2.9ZM75.55-26.7L75.55-26.7Q77-28.3 78.3-28.3L78.3-28.3Q78.9-28.3 79.25-28 79.6-27.7 79.6-27.4 79.6-27.1 79.3-26.8 79-26.5 78.15-25.88 77.3-25.25 76.8-24.75L76.8-24.75Q74.4-22.4 74.4-20.7L74.4-20.7Q74.4-19.95 74.72-19.45 75.05-18.95 74.65-18.82 74.25-18.7 73.9-19.15L73.9-19.15Q73.45-19.45 73.45-21.15L73.45-21.15Q73.45-23.4 74.25-24.9L74.25-24.9Q74.35-25.05 74.57-25.43 74.8-25.8 74.95-25.95L74.95-25.95Q74.6-25.95 73.07-25.95 71.55-25.95 67.02-26.35 62.5-26.75 60.2-26.75 57.9-26.75 56.65-26.45L56.65-26.45Q51.9-25.8 48.47-23.83 45.05-21.85 44.4-18.85L44.4-18.85Q44.3-18.55 44.3-18.13 44.3-17.7 44.57-17.1 44.85-16.5 45.25-16.15 45.65-15.8 46.47-15.3 47.3-14.8 47.57-14.58 47.85-14.35 47.67-14.2 47.5-14.05 47.32-14.05 47.15-14.05 46.95-14.1L46.95-14.1Q45.25-14.6 44.07-15.98 42.9-17.35 42.9-18.28 42.9-19.2 43.15-19.85L43.15-19.85Q43.15-20.4 43.2-20.65L43.2-20.65Q43.95-24.2 47.75-26.15L47.75-26.15Q52.3-28.5 58.85-28.5L58.85-28.5Q62.45-28.5 67.7-27.65 72.95-26.8 75.55-26.7Z" opacity="1" transform="matrix(1,0,0,1,0,0)" fill="#8bc53f" class="wordmark-text-0" data-fill-palette-color="primary" id="text-0"></path></svg></g></svg></g></svg></g></svg></g><g transform="matrix(1,0,0,1,57.19404214321625,0)"><svg viewBox="0 0 77.61191571356747 114.79778368121444" height="114.79778368121444" width="77.61191571356747"><g><svg xmlns="http://www.w3.org/2000/svg" xmlns:xlink="http://www.w3.org/1999/xlink" version="1.1" x="0" y="0" viewBox="17.4 1.78 65.20000037880132 96.439" enable-background="new 0 0 100 100" xml:space="preserve" height="114.79778368121444" width="77.61191571356747" class="icon-icon-0" data-fill-palette-color="accent" id="icon-0"><path fill="#5d9943" d="M50 28.651c4.166 0 7.221-0.995 8.332-1.936l6.072-13.256c0-3.433-6.449-6.216-14.404-6.216s-14.403 2.783-14.403 6.216l6.14 13.312C42.903 27.695 45.917 28.651 50 28.651z" data-fill-palette-color="accent"></path><path fill="#5d9943" d="M50 4.512c8.516 0 17.137 3.073 17.137 8.947v0.595l-5.893 12.863c0.699 0.944 1.395 1.875 2.082 2.797 8.877 11.889 16.543 22.156 16.542 35.904 0 16.47-13.399 29.868-29.868 29.868S20.132 82.088 20.132 65.618c0-13.354 7.623-23.66 16.449-35.594 0.741-1.002 1.49-2.016 2.244-3.043l-5.96-12.923v-0.6C32.865 7.585 41.485 4.512 50 4.512M50 1.78c-9.568 0-19.866 3.655-19.866 11.679v0.6c0 0.395 0.085 0.785 0.251 1.144l5.285 11.458c-0.415 0.562-0.827 1.12-1.237 1.675L34.385 28.4C25.271 40.723 17.4 51.364 17.4 65.618c0 17.976 14.624 32.601 32.6 32.601 17.977 0 32.6-14.625 32.6-32.601 0.002-14.656-7.916-25.26-17.084-37.539l-0.062-0.083c-0.35-0.468-0.7-0.938-1.053-1.412l5.219-11.394c0.163-0.357 0.248-0.745 0.248-1.138v-0.595C69.867 5.435 59.568 1.78 50 1.78L50 1.78z" data-fill-palette-color="accent"></path><path fill="#5d9943" d="M59 28.473c-1.979 1.317-5.499 1.999-9 1.999-3.455 0-6.929-0.665-8.922-1.948-9.472 12.914-18.215 23.537-18.215 37.094 0 14.473 11.33 26.295 25.603 27.091v-8.375l-4.269-3.98v-4.109l5.8 5.009 5.805-5.009v4.109l-4.268 3.98v8.375c14.272-0.796 25.603-12.619 25.603-27.091C77.137 51.725 68.467 41.246 59 28.473zM42.625 48.188l6.06 5.105v5.616c0 0-4.735-4.181-5.663-5.106C42.096 52.876 42.625 48.188 42.625 48.188zM48.613 76.629c0 0-5.003-4.443-5.663-5.104-0.658-0.66-0.396-5.616-0.396-5.616l6.06 5.104L48.613 76.629 48.613 76.629zM48.706 67.855c0 0-4.748-4.189-5.663-5.104-0.913-0.914-0.396-5.615-0.396-5.615l6.06 5.104L48.706 67.855 48.706 67.855zM46.404 46.811l3.594-6.829 3.598 6.829-3.598 2.908L46.404 46.811zM56.9 71.525c-1.051 0.949-5.662 5.104-5.662 5.104v-5.615l6.059-5.104C57.297 65.909 57.953 70.576 56.9 71.525zM56.994 62.752c-0.824 0.824-5.662 5.104-5.662 5.104v-5.613l6.059-5.104C57.391 57.137 57.818 61.928 56.994 62.752zM56.973 53.803c-0.938 0.848-5.662 5.106-5.662 5.106v-5.616l6.06-5.105C57.369 48.188 57.914 52.954 56.973 53.803z" data-fill-palette-color="accent"></path></svg></g></svg></g><g></g></svg></g></svg></g></svg></g></svg></g><defs></defs></svg><rect width="320" height="360" fill="none" stroke="none" visibility="hidden"></rect></g></svg></g></svg>